<?xml version="1.0" encoding="UTF-8"?>
<svg xmlns="http://www.w3.org/2000/svg" version="1.1" viewBox="0 0 83 20">
  <defs>
    <style>
      .cls-1 {
        fill: #fff;
      }
    </style>
  </defs>
  <!-- Generator: Adobe Illustrator 28.7.4, SVG Export Plug-In . SVG Version: 1.2.0 Build 166)  -->
  <g>
    <g id="Livello_1">
      <path class="cls-1" d="M-682.9-199.4v-101.6h-.6l-34.6,101.6h-13.2l-34.6-101.6h-.6v101.6h-16.2v-138h20.6l37.1,110h.6l37-110h20.7v138h-16.3ZM-577-199.4h-16.5v-17h-.4c-4.6,12.1-13.1,18.8-25.9,18.8-18.2,0-29.3-14.2-29.3-37.3v-65.1h17.2v61.1c0,15.3,6,23.5,17.9,23.5s19.9-10.3,19.9-26v-58.6h17.2v100.6h0ZM-530-301.9c19.5,0,32.1,13,32.7,31.6h-16.1c-1-9.8-6.9-15.9-16.5-15.9s-15.5,5.4-15.5,13.5,3.8,10.6,12.9,13.1l13.6,3.7c17.1,4.8,23.6,12.8,23.6,27.4s-14.2,31-33.9,31-33.5-12.3-35-31.5h17c1.6,10.5,7.6,15.7,18,15.7s16.7-5.2,16.7-13.4-3.1-10.3-12.2-12.8l-13.6-3.8c-15.9-4.4-23.8-13.6-23.8-28.2s13-30.3,32.3-30.3ZM-483.5-326.7c0-6.6,4.5-11.9,9.9-11.9s9.9,5.3,9.9,11.9-4.4,11.9-9.9,11.9c-5.5,0-9.9-5.4-9.9-11.9h0ZM-482.2-300.1h17.2v100.6h-17.2v-100.6ZM-392.5-265.4c-1.7-10.7-8.4-19.2-19.6-19.2s-22,13.3-22,34.9,8.8,34.9,22.2,34.9,17.5-7,19.5-18.7h16.5c-1.8,21.4-16,36-36.2,36s-39.5-19.7-39.5-52.2,15.6-52.1,39.3-52.1,34.6,16.6,36.2,36.5h-16.4ZM-835.1-324c-4.4,6.3-11.5,11.3-18.5,10.5-.9-8.5,2.6-17.5,6.6-23.1,4.4-6.5,12.1-11.1,18.4-11.5.8,8.9-2.1,17.5-6.4,24h0ZM-828.8-311.8c4,.4,15.4,1.8,22.8,14.9-.6.6-13.6,9.6-13.4,28.5.2,22.6,16.5,30.2,16.6,30.4-.2.6-2.6,10.7-8.5,21.2-5.2,9.2-10.5,18.2-19.1,18.4-8.3.2-11-5.9-20.5-5.9s-12.5,5.7-20.3,6.1c-8.3.4-14.5-9.8-19.7-19-10.7-18.6-18.8-52.4-7.8-75.3,5.3-11.4,15.1-18.6,25.7-18.8,8.1-.2,15.6,6.4,20.5,6.4s13.6-7.7,23.8-7h0Z"/>
    </g>
  </g>
</svg>